<?xml version="1.0" encoding="UTF-8" standalone="no"?>
<svg
   xmlns:dc="http://purl.org/dc/elements/1.1/"
   xmlns:cc="http://creativecommons.org/ns#"
   xmlns:rdf="http://www.w3.org/1999/02/22-rdf-syntax-ns#"
   xmlns:svg="http://www.w3.org/2000/svg"
   xmlns="http://www.w3.org/2000/svg"
   viewBox="0 0 21.333332 21.333332"
   height="21.333332"
   width="21.333332"
   xml:space="preserve"
   id="svg2"
   version="1.1"><metadata
     id="metadata8"><rdf:RDF><cc:Work
         rdf:about=""><dc:format>image/svg+xml</dc:format><dc:type
           rdf:resource="http://purl.org/dc/dcmitype/StillImage" /></cc:Work></rdf:RDF></metadata><defs
     id="defs6" /><g
     transform="matrix(1.3333333,0,0,-1.3333333,0,21.333333)"
     id="g10"><path
       id="path12"
       style="fill:#000000;fill-opacity:1;fill-rule:nonzero;stroke:none"
       d="M 14.5,14 H 1.5 C 0.675,14 0,13.325 0,12.5 V 2.5 C 0,1.675 0.675,1 1.5,1 h 13 C 15.325,1 16,1.675 16,2.5 v 10 C 16,13.325 15.325,14 14.5,14 Z M 6.23,7.4 2,4.105 v 7.838 z M 2.756,12 H 13.244 L 8,8.063 Z M 6.395,7.223 8,5.5 9.605,7.223 12.895,3 H 3.105 Z M 9.77,7.4 14,11.943 V 4.105 Z" /></g></svg>