<?xml version="1.0" encoding="UTF-8" standalone="no"?>
<svg
   xmlns:dc="http://purl.org/dc/elements/1.1/"
   xmlns:cc="http://creativecommons.org/ns#"
   xmlns:rdf="http://www.w3.org/1999/02/22-rdf-syntax-ns#"
   xmlns:svg="http://www.w3.org/2000/svg"
   xmlns="http://www.w3.org/2000/svg"
   viewBox="0 0 21.333332 21.333332"
   height="21.333332"
   width="21.333332"
   xml:space="preserve"
   id="svg2"
   version="1.1"><metadata
     id="metadata8"><rdf:RDF><cc:Work
         rdf:about=""><dc:format>image/svg+xml</dc:format><dc:type
           rdf:resource="http://purl.org/dc/dcmitype/StillImage" /></cc:Work></rdf:RDF></metadata><defs
     id="defs6" /><g
     transform="matrix(1.3333333,0,0,-1.3333333,0,21.333333)"
     id="g10"><path
       id="path12"
       style="fill:#000000;fill-opacity:1;fill-rule:nonzero;stroke:none"
       d="M 14.5,16 H 1.5 C 0.675,16 0,15.325 0,14.5 V 1.5 C 0,0.675 0.675,0 1.5,0 h 13 C 15.325,0 16,0.675 16,1.5 v 13 C 16,15.325 15.325,16 14.5,16 Z M 6,3 H 4 v 7 h 2 z m -1,8 c -0.553,0 -1,0.447 -1,1 0,0.553 0.447,1 1,1 0.553,0 1,-0.447 1,-1 C 6,11.447 5.553,11 5,11 Z M 13,3 H 11 V 7 C 11,7.553 10.553,8 10,8 9.447,8 9,7.553 9,7 V 3 H 7 v 7 H 9 V 8.759 C 9.412,9.325 10.044,10 10.75,10 11.994,10 13,8.881 13,7.5 Z" /></g></svg>