<?xml version="1.0" encoding="UTF-8" standalone="no"?>
<svg
   xmlns:dc="http://purl.org/dc/elements/1.1/"
   xmlns:cc="http://creativecommons.org/ns#"
   xmlns:rdf="http://www.w3.org/1999/02/22-rdf-syntax-ns#"
   xmlns:svg="http://www.w3.org/2000/svg"
   xmlns="http://www.w3.org/2000/svg"
   viewBox="0 0 206.45866 206.45866"
   height="206.45866"
   width="206.45866"
   xml:space="preserve"
   id="svg2"
   version="1.1"><metadata
     id="metadata8"><rdf:RDF><cc:Work
         rdf:about=""><dc:format>image/svg+xml</dc:format><dc:type
           rdf:resource="http://purl.org/dc/dcmitype/StillImage" /></cc:Work></rdf:RDF></metadata><defs
     id="defs6" /><g
     transform="matrix(1.3333333,0,0,1.3333333,0,6.4947998e-6)"
     id="g10"><g
       id="g12"><path
         id="path14"
         style="fill:#231f20;fill-opacity:1;fill-rule:nonzero;stroke:none"
         d="m 111.965,59.707 c 0.027,0.762 0.043,1.535 0.043,2.316 0,23.539 -17.918,50.688 -50.703,50.688 -10.067,0 -19.434,-2.938 -27.317,-8.008 1.399,0.168 2.813,0.258 4.246,0.258 8.36,0 16.036,-2.848 22.141,-7.629 C 52.578,97.18 46,92.035 43.73,84.949 c 1.082,0.215 2.192,0.321 3.352,0.321 1.613,0 3.195,-0.211 4.688,-0.622 -8.145,-1.628 -14.297,-8.832 -14.297,-17.464 0,-0.079 0,-0.153 0.015,-0.231 2.391,1.344 5.149,2.133 8.074,2.223 -4.785,-3.18 -7.937,-8.649 -7.937,-14.828 0,-3.258 0.883,-6.321 2.406,-8.953 8.785,10.781 21.93,17.875 36.727,18.621 -0.305,-1.313 -0.457,-2.664 -0.457,-4.067 0,-9.836 7.98,-17.816 17.816,-17.816 5.133,0 9.758,2.164 13,5.621 4.067,-0.793 7.891,-2.27 11.332,-4.324 -1.34,4.172 -4.156,7.66 -7.84,9.867 3.61,-0.426 7.051,-1.387 10.231,-2.801 -2.371,3.563 -5.406,6.695 -8.875,9.211 z M 77.41,0 C 34.73,0 0,34.734 0,77.414 c 0,42.699 34.73,77.43 77.41,77.43 42.699,0 77.434,-34.731 77.434,-77.43 C 154.844,34.734 120.109,0 77.41,0" /></g></g></svg>